<?xml version="1.0" standalone="no"?><!DOCTYPE svg PUBLIC "-//W3C//DTD SVG 1.1//EN" "http://www.w3.org/Graphics/SVG/1.1/DTD/svg11.dtd"><svg t="1653463188345" class="icon" viewBox="0 0 1024 1024" version="1.1" xmlns="http://www.w3.org/2000/svg" p-id="19726" xmlns:xlink="http://www.w3.org/1999/xlink" width="16" height="16"><defs><style type="text/css">@font-face { font-family: feedback-iconfont; src: url("//at.alicdn.com/t/font_1031158_u69w8yhxdu.woff2?t=1630033759944") format("woff2"), url("//at.alicdn.com/t/font_1031158_u69w8yhxdu.woff?t=1630033759944") format("woff"), url("//at.alicdn.com/t/font_1031158_u69w8yhxdu.ttf?t=1630033759944") format("truetype"); }
</style></defs><path d="M469.333333 128a85.333333 85.333333 0 0 1 85.333334 85.333333v85.333334h256a85.333333 85.333333 0 0 1 85.12 78.933333L896 384v512h-85.333333V384h-256v512h-85.333334V213.333333H213.333333v682.666667H128V213.333333a85.333333 85.333333 0 0 1 85.333333-85.333333h256z m-42.666666 512v85.333333H256v-85.333333h170.666667z m341.333333 0v85.333333h-170.666667v-85.333333h170.666667z m-341.333333-170.666667v85.333334H256v-85.333334h170.666667z m341.333333 0v85.333334h-170.666667v-85.333334h170.666667z m-341.333333-170.666666v85.333333H256V298.666667h170.666667z" fill="#7069b9" p-id="19727"></path></svg>