<?xml version="1.0" standalone="no"?><!DOCTYPE svg PUBLIC "-//W3C//DTD SVG 1.1//EN" "http://www.w3.org/Graphics/SVG/1.1/DTD/svg11.dtd"><svg t="1653371067769" class="icon" viewBox="0 0 1879 1024" version="1.1" xmlns="http://www.w3.org/2000/svg" p-id="4113" xmlns:xlink="http://www.w3.org/1999/xlink" width="88.078125" height="48"><defs><style type="text/css">@font-face { font-family: feedback-iconfont; src: url("//at.alicdn.com/t/font_1031158_u69w8yhxdu.woff2?t=1630033759944") format("woff2"), url("//at.alicdn.com/t/font_1031158_u69w8yhxdu.woff?t=1630033759944") format("woff"), url("//at.alicdn.com/t/font_1031158_u69w8yhxdu.ttf?t=1630033759944") format("truetype"); }
</style></defs><path d="M1030.954913 474.265896c-26.043931 0-47.352601 21.160694-47.352601 47.352601s21.308671 47.352601 47.352601 47.352601 47.352601-21.308671 47.352601-47.352601-21.160694-47.352601-47.352601-47.352601zM1452.54104 109.946821c0-36.402312-29.595376-65.997688-65.997687-65.997688H675.514451c-36.402312 0-65.997688 29.595376-65.997688 65.997688V176.092486h57.267052V101.216185H1395.421965v466.571098h-74.8763v57.267052H1386.543353c36.402312 0 65.997688-29.595376 65.997687-65.997688V109.946821zM843.912139 474.265896c-26.043931 0-47.352601 21.160694-47.352601 47.352601s21.308671 47.352601 47.352601 47.352601 47.352601-21.308671 47.352601-47.352601-21.308671-47.352601-47.352601-47.352601z" fill="#2c2c2c" p-id="4114"></path><path d="M1265.498266 297.137572c0-36.402312-29.595376-65.997688-65.997688-65.997688H488.323699c-36.402312 0-65.997688 29.595376-65.997687 65.997688v449.109827c0 36.402312 29.595376 65.997688 65.997687 65.997688h83.606937V987.00578l174.760693-174.760693h452.661272c36.402312 0 65.997688-29.595376 65.997688-65.997688V297.137572h0.147977zM1204.531792 751.278613H721.387283l-88.490173 88.490173v-88.490173H483.144509V291.958382H1204.531792v459.320231z" fill="#2c2c2c" p-id="4115"></path><path d="M656.721387 474.265896c-26.043931 0-47.352601 21.160694-47.352601 47.352601s21.308671 47.352601 47.352601 47.352601 47.352601-21.308671 47.352601-47.352601-21.160694-47.352601-47.352601-47.352601z" fill="#2c2c2c" p-id="4116"></path></svg>