<?xml version="1.0" standalone="no"?><!DOCTYPE svg PUBLIC "-//W3C//DTD SVG 1.1//EN" "http://www.w3.org/Graphics/SVG/1.1/DTD/svg11.dtd"><svg t="1653552085317" class="icon" viewBox="0 0 1057 1024" version="1.1" xmlns="http://www.w3.org/2000/svg" p-id="2906" xmlns:xlink="http://www.w3.org/1999/xlink" width="16.515625" height="16"><defs><style type="text/css">@font-face { font-family: feedback-iconfont; src: url("//at.alicdn.com/t/font_1031158_u69w8yhxdu.woff2?t=1630033759944") format("woff2"), url("//at.alicdn.com/t/font_1031158_u69w8yhxdu.woff?t=1630033759944") format("woff"), url("//at.alicdn.com/t/font_1031158_u69w8yhxdu.ttf?t=1630033759944") format("truetype"); }
</style></defs><path d="M525.43873517 261.85531169A83.34778999 83.34778999 0 1 1 608.26011817 178.50752169a83.5232595 83.5232595 0 0 1-82.821383 83.34779z m0-122.82832226a39.48053227 39.48053227 0 1 0 39.48053226 39.48053227 39.48053227 39.48053227 0 0 0-39.48053226-39.48053227zM831.9831346 886.17412847H225.21122121a26.32035509 26.32035509 0 0 1-25.79394732-21.23175313l-23.51285063-118.4415968a26.32035509 26.32035509 0 0 1 25.79394734-31.40895629h525.00334437a26.32035509 26.32035509 0 0 1 0 52.64070942H233.80920417l12.98470843 65.80088659h562.72918536l62.99338288-400.59579957-165.99370425 84.92701097a26.32035509 26.32035509 0 0 1-31.40895707-5.61500896l-149.67508435-163.01073103-156.69384556 170.90683748a26.32035509 26.32035509 0 0 1-31.75989455 5.43954023l-157.92212907-83.69872825 32.46177107 189.85749235a26.32035509 26.32035509 0 1 1-52.6407102 9.12438995L116.94682836 398.01928062a26.32035509 26.32035509 0 0 1 38.60318703-27.89957608l188.27827137 99.31547241 162.30885528-177.22372218a26.32035509 26.32035509 0 0 1 19.47706187-8.59798296 26.32035509 26.32035509 0 0 1 19.47706263 8.59798296l155.46556284 169.50308447 194.24421859-99.1400029a26.32035509 26.32035509 0 0 1 37.9013105 27.54863784l-74.57433829 473.76638718a26.32035509 26.32035509 0 0 1-26.14488559 22.2845671z" p-id="2907" fill="#afafaf"></path></svg>